# Blender v2.70 (sub 0) OBJ File: 'arm.blend'
# www.blender.org
mtllib arm.mtl
g Sphere
v -0.063069 1.644160 0.113165
v 0.022619 1.644160 -0.150556
v 0.405513 1.646635 0.200364
v 0.429239 1.442662 0.127345
v 0.452965 1.646635 0.054325
v -0.493414 1.646636 -0.091715
v -0.469689 1.442663 -0.164735
v -0.445963 1.646636 -0.237755
v 0.381788 1.646635 0.273384
v 0.133331 1.646636 0.453899
v -0.173780 1.646635 0.453899
v -0.422237 1.646636 0.273384
v -0.517140 1.646636 -0.018695
v -0.422237 1.646636 -0.310774
v -0.173780 1.646636 -0.491289
v 0.133330 1.646636 -0.491289
v 0.381788 1.646635 -0.310774
v 0.476690 1.646635 -0.018695
v 0.342756 1.347595 0.245026
v 0.118421 1.347597 0.408014
v -0.158871 1.347597 0.408014
v -0.383205 1.347597 0.245026
v -0.468894 1.347597 -0.018695
v -0.383206 1.347597 -0.282416
v -0.158871 1.347597 -0.445405
v 0.118421 1.347597 -0.445405
v 0.342756 1.347595 -0.282416
v 0.428444 1.347595 -0.018695
v -1.713719 0.086229 -0.018695
v -1.713719 -0.117120 -0.018695
v -1.390290 -0.117120 -1.014105
v -1.390290 0.086229 -1.014105
v -0.543544 0.086229 -1.629302
v -0.543544 -0.117120 -1.629302
v 0.503092 -0.117120 -1.629302
v 0.503092 0.086227 -1.629302
v 1.349838 0.086227 -1.014105
v 1.349839 -0.117121 -1.014105
v 1.673267 -0.117121 -0.018695
v 1.673267 0.086227 -0.018695
v 0.413769 1.619446 0.296620
v 0.805281 1.372869 0.581069
v 0.681492 0.371047 1.153121
v 0.616672 -0.428795 1.223183
v 0.805280 -1.435997 0.581069
v 0.413767 -1.682573 0.296620
v 0.145544 -1.682573 0.491495
v 0.295089 -1.435996 0.951744
v 0.295090 1.372870 0.951744
v 0.145546 1.619446 0.491495
v -0.185995 1.619446 0.491495
v -0.335540 1.372870 0.951744
v -0.335541 -1.435996 0.951744
v -0.185997 -1.682573 0.491495
v -0.454220 -1.682573 0.296620
v -0.845731 -1.435996 0.581070
v -0.638633 -0.427080 1.223183
v -0.689654 0.373618 1.153121
v -0.845729 1.372870 0.581070
v -0.454219 1.619446 0.296620
v -0.556670 1.619446 -0.018695
v -1.040606 1.372870 -0.018695
v -1.424659 0.988817 -0.018695
v -1.671236 0.504884 -0.018695
v -1.589510 -0.031563 -0.018695
v -1.671236 -0.568009 -0.018695
v -1.424659 -1.051943 -0.018695
v -1.040607 -1.435996 -0.018695
v -0.556672 -1.682573 -0.018695
v -0.454220 -1.682573 -0.334010
v -0.845731 -1.435996 -0.618460
v -1.156437 -1.051943 -0.844200
v -1.355921 -0.568009 -0.989135
v -1.289803 -0.031563 -0.941097
v -1.355921 0.504883 -0.989135
v -1.156436 0.988817 -0.844200
v -0.845730 1.372870 -0.618460
v -0.454219 1.619446 -0.334010
v -0.185996 1.619446 -0.528885
v -0.335540 1.372870 -0.989135
v -0.454219 0.988817 -1.354391
v -0.530416 0.504882 -1.588899
v -0.505161 -0.031563 -1.511172
v -0.530416 -0.568009 -1.588899
v -0.454220 -1.051944 -1.354391
v -0.335541 -1.435996 -0.989135
v -0.185997 -1.682573 -0.528885
v 0.145544 -1.682573 -0.528885
v 0.295088 -1.435996 -0.989135
v 0.413768 -1.051944 -1.354391
v 0.489964 -0.568010 -1.588899
v 0.464710 -0.031564 -1.511172
v 0.489965 0.504881 -1.588899
v 0.413768 0.988815 -1.354391
v 0.295090 1.372870 -0.989135
v 0.145546 1.619446 -0.528885
v 0.413769 1.619446 -0.334010
v 0.805281 1.372869 -0.618460
v 1.115985 0.988815 -0.844200
v 1.315470 0.504881 -0.989135
v 1.249352 -0.031565 -0.941097
v 1.315469 -0.568010 -0.989135
v 1.115984 -1.051945 -0.844200
v 0.805279 -1.435997 -0.618460
v 0.413767 -1.682573 -0.334010
v -0.020227 -1.767538 -0.018695
v 0.516219 -1.682573 -0.018695
v 1.000154 -1.435997 -0.018695
v 1.384207 -1.051945 -0.018695
v 1.630785 -0.568010 -0.018695
v 1.549058 -0.031565 -0.018695
v 1.630785 0.504881 -0.018695
v 1.384208 0.988815 -0.018695
v 1.000155 1.372869 -0.018695
v 0.516221 1.619446 -0.018695
v 0.164597 -0.318202 8.864502
v 0.335121 -0.024120 8.864502
v 0.165700 0.270599 8.864502
v -0.174244 0.271236 8.864502
v -0.175348 -0.317565 8.864502
v -0.344768 -0.022845 8.864502
v 0.287555 -0.532096 8.706696
v 0.581838 -0.024582 8.706696
v 0.289459 0.484031 8.706696
v -0.297202 0.485130 8.706696
v -0.591485 -0.022383 8.706696
v -0.299107 -0.530997 8.706696
v 0.591406 -1.060668 1.701448
v 1.191520 -0.025725 1.701448
v 0.595290 1.011459 1.701448
v -0.601053 1.013703 1.701448
v -1.201167 -0.021240 1.701448
v -0.604938 -1.058425 1.701448
v 0.591406 -1.060668 1.393382
v 1.191520 -0.025725 1.393382
v 0.595290 1.011459 1.393382
v -0.601053 1.013703 1.393382
v -1.201167 -0.021240 1.393382
v -0.604938 -1.058425 1.393382
v 0.324071 -0.832391 1.293245
v 0.909273 -0.025197 1.153121
v 0.453710 0.767292 1.153121
v -0.460388 0.868807 1.173082
v -0.918921 -0.021768 1.153121
v -0.358346 -0.832390 1.293245
vt 0.659156 0.700762
vt 0.621057 0.746725
vt 0.597469 0.724749
vt 0.701192 0.651070
vt 0.651726 0.627846
vt 0.719296 0.599704
vt 0.739927 0.543931
vt 0.705665 0.524597
vt 0.823212 0.408992
vt 0.786762 0.449211
vt 0.757391 0.431323
vt 0.846926 0.359562
vt 0.818650 0.336944
vt 0.892732 0.319799
vt 0.938775 0.273605
vt 0.909253 0.236575
vt 0.122928 0.853774
vt 0.134719 0.868937
vt 0.104793 0.872141
vt 0.103565 0.849263
vt 0.084293 0.856009
vt 0.072885 0.874083
vt 0.072294 0.916068
vt 0.104449 0.915858
vt 0.084345 0.933509
vt 0.105054 0.942173
vt 0.125540 0.933501
vt 0.134157 0.916831
vt 0.071973 0.910207
vt 0.134327 0.911573
vt 0.135149 0.874234
vt 0.072718 0.879997
vt 0.155383 0.891694
vt 0.052982 0.895473
vt 0.034086 0.920513
vt 0.035272 0.869774
vt 0.172768 0.864822
vt 0.176901 0.918792
vt 0.056004 0.968548
vt 0.106009 0.979739
vt 0.152632 0.964409
vt 0.147287 0.823350
vt 0.102082 0.807897
vt 0.058684 0.827036
vt 0.835457 0.509237
vt 0.851003 0.512914
vt 0.845592 0.523493
vt 0.836966 0.522196
vt 0.819882 0.516585
vt 0.828303 0.524897
vt 0.812761 0.532212
vt 0.825315 0.533182
vt 0.817533 0.548082
vt 0.826924 0.541462
vt 0.830414 0.557715
vt 0.834178 0.546584
vt 0.845938 0.557876
vt 0.843470 0.547044
vt 0.858383 0.550217
vt 0.851091 0.543594
vt 0.864372 0.537501
vt 0.854701 0.536219
vt 0.861543 0.523429
vt 0.852374 0.528407
vt 0.528305 0.788180
vt 0.513432 0.809847
vt 0.420046 0.757117
vt 0.532576 0.761280
vt 0.407117 0.704923
vt 0.922166 0.430454
vt 0.901824 0.447905
vt 0.833720 0.403561
vt 0.896507 0.370845
vt 0.961474 0.415444
vt 0.620255 0.524586
vt 0.707303 0.560555
vt 0.663194 0.586104
vt 0.557780 0.534165
vt 0.640459 0.600041
vt 0.721648 0.692161
vt 0.724191 0.610018
vt 0.814476 0.641105
vt 0.581201 0.485369
vt 0.575227 0.508971
vt 0.872558 0.631154
vt 0.650705 0.472205
vt 0.670379 0.505028
vt 0.723308 0.639284
vt 0.683942 0.645369
vt 0.658488 0.648829
vt 0.724546 0.716134
vt 0.676530 0.704111
vt 0.653046 0.696257
vt 0.915879 0.597451
vt 0.936913 0.613964
vt 0.964301 0.637903
vt 0.937809 0.548817
vt 0.963373 0.552875
vt 0.988264 0.557870
vt 0.676822 0.792299
vt 0.644447 0.753311
vt 0.627094 0.735028
vt 0.595099 0.810719
vt 0.592036 0.784325
vt 0.585201 0.758968
vt 0.931948 0.494967
vt 0.956901 0.487127
vt 0.984322 0.475759
vt 0.568694 0.667669
vt 0.557044 0.687855
vt 0.546012 0.677483
vt 0.547418 0.709192
vt 0.502464 0.697923
vt 0.530032 0.732315
vt 0.880776 0.469928
vt 0.864274 0.491581
vt 0.834064 0.480453
vt 0.798209 0.493396
vt 0.459335 0.647276
vt 0.611918 0.822927
vt 0.544046 0.661112
vt 0.553786 0.647237
vt 0.481774 0.601381
vt 0.782991 0.530832
vt 0.795004 0.565782
vt 0.566210 0.591589
vt 0.569377 0.643643
vt 0.582991 0.649264
vt 0.598765 0.632717
vt 0.617071 0.616201
vt 0.817731 0.609203
vt 0.823490 0.581827
vt 0.853013 0.580828
vt 0.861576 0.604185
vt 0.633433 0.651622
vt 0.611288 0.655717
vt 0.590210 0.660982
vt 0.589985 0.674080
vt 0.609766 0.680546
vt 0.630412 0.687457
vt 0.894097 0.580938
vt 0.875712 0.565123
vt 0.886756 0.540460
vt 0.910825 0.544623
vt 0.611253 0.716951
vt 0.596622 0.700984
vt 0.582835 0.684869
vt 0.570699 0.690248
vt 0.574132 0.711905
vt 0.579343 0.734059
vt 0.905582 0.504822
vt 0.882808 0.513609
vt 0.099266 0.327943
vt 0.005182 0.369660
vt 0.006041 0.306064
vt 0.071429 0.284893
vt 0.232627 0.003827
vt 0.242888 0.095012
vt 0.198344 0.093726
vt 0.184328 0.034032
vt 0.227774 0.161960
vt 0.192669 0.150102
vt 0.199575 0.219263
vt 0.162785 0.198484
vt 0.157987 0.275196
vt 0.122733 0.245121
vt 0.547269 0.705063
vt 0.502771 0.830235
vt 0.853999 0.193384
vt 0.774691 0.303170
vt 0.713122 0.402254
vt 0.658602 0.498027
vt 0.601117 0.599849
vt 0.574842 0.850605
vn -0.144503 -0.264740 -0.953432
vn -0.561202 -0.501862 -0.658169
vn -0.444009 -0.255240 -0.858899
vn -0.606421 0.351635 -0.713167
vn -0.675669 0.339210 -0.654529
vn 0.607737 0.349358 -0.713165
vn 0.607735 0.349358 -0.713167
vn 0.607734 0.349359 -0.713167
vn 0.554838 -0.515593 -0.652931
vn 0.133587 -0.262732 -0.955576
vn 0.432202 -0.250612 -0.866253
vn 0.003721 0.999980 0.005122
vn 0.000000 0.999974 0.007267
vn -0.004268 0.999974 0.005880
vn -0.006019 0.999980 0.001956
vn -0.003719 0.999980 -0.005124
vn -0.000003 0.999974 -0.007266
vn 0.004273 0.999974 -0.005876
vn 0.006021 0.999980 -0.001956
vn -0.004981 0.999986 -0.001619
vn 0.004983 0.999986 0.001616
vn -0.012354 0.999200 0.038029
vn 0.004983 0.999986 0.001617
vn -0.004981 0.999986 -0.001620
vn 0.012356 0.999200 -0.038029
vn 0.289207 0.352280 -0.890089
vn -0.289207 0.352281 0.890088
vn 0.837323 -0.095322 0.538335
vn 0.993834 -0.095322 0.056643
vn 0.940055 -0.151664 0.305441
vn 0.940054 -0.151665 0.305443
vn 0.856511 -0.434672 0.278297
vn -0.837323 -0.095322 -0.538334
vn -0.993833 -0.095324 -0.056642
vn -0.940055 -0.151664 -0.305442
vn -0.940054 -0.151667 -0.305443
vn -0.856510 -0.434675 -0.278296
vn 0.580985 -0.151665 0.799659
vn 0.000001 -0.151665 0.988432
vn -0.580986 -0.151665 0.799658
vn -0.940054 -0.151666 0.305443
vn -0.580986 -0.151665 -0.799658
vn 0.000000 -0.151665 -0.988432
vn 0.580985 -0.151665 -0.799659
vn 0.940055 -0.151665 -0.305442
vn -0.909156 0.293553 -0.295401
vn -0.561888 0.293554 -0.773374
vn -0.000000 0.293555 -0.955942
vn 0.561889 0.293554 -0.773374
vn 0.909155 0.293555 -0.295402
vn 0.909156 0.293555 0.295401
vn 0.561889 0.293555 0.773374
vn 0.000000 0.293555 0.955942
vn -0.561887 0.293554 0.773375
vn -0.909156 0.293553 0.295402
vn 0.542547 0.787664 0.291938
vn 0.767310 -0.252568 0.589444
vn 0.767787 0.254639 0.587930
vn 0.643316 -0.678362 0.354922
vn -0.540628 0.784870 0.302822
vn -0.762908 -0.238427 0.600936
vn -0.758366 0.253163 0.600657
vn -0.638932 -0.673739 0.371270
vn -0.946658 0.096062 -0.307588
vn -0.671536 -0.708118 -0.218195
vn -0.557866 0.809895 -0.181262
vn -0.947261 -0.089251 -0.307784
vn -0.344781 0.809894 -0.474550
vn -0.585439 -0.089250 -0.805789
vn -0.585067 0.096060 -0.805276
vn -0.415033 -0.708116 -0.571244
vn 0.000000 0.096058 -0.995376
vn -0.000001 -0.708117 -0.706095
vn 0.000001 0.809895 -0.586575
vn 0.000000 -0.089250 -0.996009
vn 0.344779 0.809896 -0.474548
vn 0.585439 -0.089250 -0.805789
vn 0.585067 0.096060 -0.805276
vn 0.415031 -0.708119 -0.571242
vn 0.946658 0.096060 -0.307588
vn 0.671535 -0.708119 -0.218195
vn 0.557863 0.809897 -0.181261
vn 0.947261 -0.089251 -0.307784
vn 0.156233 -0.986415 0.050763
vn 0.449130 -0.881469 0.145930
vn 0.775904 -0.350948 0.524222
vn 0.703077 -0.358237 0.614288
vn 0.704723 0.359074 0.611909
vn 0.775757 0.359698 0.518476
vn 0.449131 0.881468 0.145931
vn 0.277578 0.881468 0.382053
vn 0.567336 0.367002 0.737183
vn 0.584568 -0.379855 0.716932
vn 0.277577 -0.881469 0.382052
vn 0.096556 -0.986415 0.132901
vn 0.000001 -0.986415 0.164273
vn 0.000000 -0.881469 0.472243
vn -0.000000 -0.492420 0.870358
vn 0.035505 0.356710 0.933540
vn 0.000000 0.881468 0.472243
vn -0.277577 0.881469 0.382053
vn -0.612456 0.358977 0.704296
vn -0.589930 -0.370273 0.717551
vn -0.277578 -0.881468 0.382053
vn -0.096557 -0.986415 0.132900
vn -0.156233 -0.986415 0.050763
vn -0.449130 -0.881468 0.145931
vn -0.775965 -0.342688 0.529569
vn -0.698348 -0.355826 0.621045
vn -0.696704 0.354991 0.623366
vn -0.775949 0.345998 0.527437
vn -0.449129 0.881469 0.145931
vn -0.449129 0.881469 -0.145931
vn -0.689152 0.689151 -0.223919
vn -0.855861 0.436084 -0.278087
vn -0.855862 -0.436083 -0.278086
vn -0.689152 -0.689151 -0.223919
vn -0.449130 -0.881468 -0.145931
vn -0.156233 -0.986415 -0.050763
vn -0.096557 -0.986415 -0.132900
vn -0.277578 -0.881468 -0.382053
vn -0.425919 -0.689152 -0.586227
vn -0.528952 -0.436083 -0.728040
vn -0.528951 0.436084 -0.728039
vn -0.425919 0.689152 -0.586228
vn -0.277577 0.881468 -0.382053
vn 0.000000 0.881468 -0.472243
vn 0.000001 0.689151 -0.724618
vn 0.000000 0.436084 -0.899906
vn -0.000000 -0.436083 -0.899907
vn 0.000000 -0.689152 -0.724617
vn 0.000000 -0.881468 -0.472244
vn 0.000000 -0.986415 -0.164273
vn 0.096558 -0.986415 -0.132899
vn 0.277576 -0.881469 -0.382052
vn 0.425918 -0.689152 -0.586228
vn 0.528951 -0.436083 -0.728040
vn 0.528952 0.436084 -0.728039
vn 0.425920 0.689150 -0.586229
vn 0.277578 0.881468 -0.382053
vn 0.449131 0.881468 -0.145931
vn 0.689153 0.689151 -0.223919
vn 0.855862 0.436083 -0.278086
vn 0.855861 -0.436084 -0.278087
vn 0.689152 -0.689152 -0.223918
vn 0.449129 -0.881469 -0.145930
vn 0.156233 -0.986415 -0.050764
vn -0.001113 -0.594101 0.804390
vn 0.513952 -0.298014 0.804389
vn 0.515064 0.296086 0.804389
vn 0.001113 0.594101 0.804390
vn -0.513950 0.298015 0.804390
vn -0.515063 -0.296086 0.804390
vn -0.001869 -0.997170 0.075159
vn 0.862640 -0.500204 0.075159
vn 0.864509 0.496966 0.075159
vn 0.001870 0.997170 0.075159
vn -0.862640 0.500204 0.075159
vn -0.864509 -0.496966 0.075159
vn -0.001875 -0.999998 0.000000
vn 0.865087 -0.501622 0.000000
vn 0.866961 0.498376 0.000000
vn 0.001875 0.999998 0.000000
vn -0.865086 0.501623 0.000000
vn -0.866961 -0.498375 0.000000
vn -0.000482 -0.403393 -0.915027
vn 0.031437 0.763504 -0.645038
usemtl Material.001
s off
f 57/1/1 145/2/1 139/3/1
f 144/4/2 57/1/2 138/5/2
f 57/1/3 139/3/3 138/5/3
f 58/6/4 144/4/4 138/5/4
f 143/7/5 58/6/5 137/8/5
f 58/6/4 138/5/4 137/8/4
f 43/9/6 142/10/6 136/11/6
f 141/12/7 43/9/7 135/13/7
f 43/9/8 136/11/8 135/13/8
f 44/14/9 141/12/9 135/13/9
f 140/15/10 44/14/10 134/16/10
f 44/14/11 135/13/11 134/16/11
f 15/17/12 14/18/12 2/19/12
f 16/20/13 15/17/13 2/19/13
f 17/21/14 16/20/14 2/19/14
f 18/22/15 17/21/15 2/19/15
f 9/23/16 1/24/16 10/25/16
f 10/25/17 1/24/17 11/26/17
f 11/26/18 1/24/18 12/27/18
f 12/27/19 1/24/19 13/28/19
f 1/24/20 9/23/20 3/29/20
f 13/28/21 1/24/21 6/30/21
f 1/24/22 3/29/22 6/30/22
f 2/19/23 14/18/23 8/31/23
f 18/22/24 2/19/24 5/32/24
f 2/19/25 8/31/25 5/32/25
f 7/33/26 6/30/26 3/29/26 4/34/26
f 8/31/27 7/33/27 4/34/27 5/32/27
f 4/34/28 3/29/28 19/35/28
f 5/32/29 4/34/29 28/36/29
f 3/29/30 9/23/30 19/35/30
f 18/22/31 5/32/31 28/36/31
f 4/34/32 19/35/32 28/36/32
f 7/33/33 8/31/33 24/37/33
f 6/30/34 7/33/34 23/38/34
f 8/31/35 14/18/35 24/37/35
f 13/28/36 6/30/36 23/38/36
f 7/33/37 24/37/37 23/38/37
f 20/39/38 19/35/38 9/23/38 10/25/38
f 21/40/39 20/39/39 10/25/39 11/26/39
f 22/41/40 21/40/40 11/26/40 12/27/40
f 23/38/41 22/41/41 12/27/41 13/28/41
f 25/42/42 24/37/42 14/18/42 15/17/42
f 26/43/43 25/42/43 15/17/43 16/20/43
f 27/44/44 26/43/44 16/20/44 17/21/44
f 28/36/45 27/44/45 17/21/45 18/22/45
f 41/45/46 115/46/46 28/47/46 19/48/46
f 50/49/47 41/45/47 19/48/47 20/50/47
f 51/51/48 50/49/48 20/50/48 21/52/48
f 60/53/49 51/51/49 21/52/49 22/54/49
f 61/55/50 60/53/50 22/54/50 23/56/50
f 78/57/51 61/55/51 23/56/51 24/58/51
f 79/59/52 78/57/52 24/58/52 25/60/52
f 96/61/53 79/59/53 25/60/53 26/62/53
f 97/63/54 96/61/54 26/62/54 27/64/54
f 115/46/55 97/63/55 27/64/55 28/47/55
f 39/65/56 111/66/56 141/67/56
f 110/68/57 39/65/57 141/67/57 44/69/57
f 40/70/58 112/71/58 43/72/58 141/73/58
f 111/74/59 40/70/59 141/73/59
f 144/75/60 65/76/60 30/77/60
f 57/78/61 144/75/61 30/77/61 66/79/61
f 144/80/62 58/81/62 64/82/62 29/83/62
f 144/80/63 29/83/63 65/84/63
f 29/83/64 64/82/64 75/85/64 32/86/64
f 65/84/65 29/83/65 32/86/65 74/87/65
f 30/77/66 65/76/66 74/88/66 31/89/66
f 66/79/67 30/77/67 31/89/67 73/90/67
f 31/89/68 74/88/68 83/91/68 34/92/68
f 73/90/69 31/89/69 34/92/69 84/93/69
f 32/86/70 75/85/70 82/94/70 33/95/70
f 74/87/71 32/86/71 33/95/71 83/96/71
f 33/95/72 82/94/72 93/97/72 36/98/72
f 83/96/73 33/95/73 36/98/73 92/99/73
f 34/92/74 83/91/74 92/100/74 35/101/74
f 84/93/75 34/92/75 35/101/75 91/102/75
f 35/101/76 92/100/76 101/103/76 38/104/76
f 91/102/77 35/101/77 38/104/77 102/105/77
f 36/98/78 93/97/78 100/106/78 37/107/78
f 92/99/79 36/98/79 37/107/79 101/108/79
f 37/107/80 100/106/80 112/71/80 40/70/80
f 101/108/81 37/107/81 40/70/81 111/74/81
f 38/104/82 101/103/82 111/66/82 39/65/82
f 102/105/83 38/104/83 39/65/83 110/68/83
f 106/109/84 107/110/84 46/111/84
f 46/111/85 107/110/85 108/112/85 45/113/85
f 45/113/86 108/112/86 109/114/86 44/69/86
f 44/69/87 109/114/87 110/68/87
f 43/72/88 112/71/88 113/115/88
f 43/72/89 113/115/89 114/116/89 42/117/89
f 115/46/90 41/45/90 42/117/90 114/116/90
f 49/118/91 42/117/91 41/45/91 50/49/91
f 142/10/92 43/72/92 42/117/92 49/118/92
f 48/119/93 45/113/93 44/69/93 140/120/93
f 47/121/94 46/111/94 45/113/94 48/119/94
f 106/109/95 46/111/95 47/121/95
f 106/109/96 47/121/96 54/122/96
f 54/122/97 47/121/97 48/119/97 53/123/97
f 140/120/98 145/2/98 53/123/98 48/119/98
f 143/7/99 142/10/99 49/118/99 52/124/99
f 52/124/100 49/118/100 50/49/100 51/51/100
f 59/125/101 52/124/101 51/51/101 60/53/101
f 58/81/102 143/7/102 52/124/102 59/125/102
f 145/2/103 57/78/103 56/126/103 53/123/103
f 55/127/104 54/122/104 53/123/104 56/126/104
f 106/109/105 54/122/105 55/127/105
f 106/109/106 55/127/106 69/128/106
f 69/128/107 55/127/107 56/126/107 68/129/107
f 68/129/108 56/126/108 57/78/108 67/130/108
f 67/130/109 57/78/109 66/79/109
f 64/82/110 58/81/110 63/131/110
f 63/131/111 58/81/111 59/125/111 62/132/111
f 62/132/112 59/125/112 60/53/112 61/55/112
f 77/133/113 62/132/113 61/55/113 78/57/113
f 76/134/114 63/131/114 62/132/114 77/133/114
f 75/85/115 64/82/115 63/131/115 76/134/115
f 72/135/116 67/130/116 66/79/116 73/90/116
f 71/136/117 68/129/117 67/130/117 72/135/117
f 70/137/118 69/128/118 68/129/118 71/136/118
f 106/109/119 69/128/119 70/137/119
f 106/109/120 70/137/120 87/138/120
f 87/138/121 70/137/121 71/136/121 86/139/121
f 86/139/122 71/136/122 72/135/122 85/140/122
f 85/140/123 72/135/123 73/90/123 84/93/123
f 82/94/124 75/85/124 76/134/124 81/141/124
f 81/141/125 76/134/125 77/133/125 80/142/125
f 80/142/126 77/133/126 78/57/126 79/59/126
f 95/143/127 80/142/127 79/59/127 96/61/127
f 94/144/128 81/141/128 80/142/128 95/143/128
f 93/97/129 82/94/129 81/141/129 94/144/129
f 90/145/130 85/140/130 84/93/130 91/102/130
f 89/146/131 86/139/131 85/140/131 90/145/131
f 88/147/132 87/138/132 86/139/132 89/146/132
f 106/109/133 87/138/133 88/147/133
f 106/109/134 88/147/134 105/148/134
f 105/148/135 88/147/135 89/146/135 104/149/135
f 104/149/136 89/146/136 90/145/136 103/150/136
f 103/150/137 90/145/137 91/102/137 102/105/137
f 100/106/138 93/97/138 94/144/138 99/151/138
f 99/151/139 94/144/139 95/143/139 98/152/139
f 98/152/140 95/143/140 96/61/140 97/63/140
f 97/63/141 115/46/141 114/116/141 98/152/141
f 113/115/142 99/151/142 98/152/142 114/116/142
f 112/71/143 100/106/143 99/151/143 113/115/143
f 109/114/144 103/150/144 102/105/144 110/68/144
f 108/112/145 104/149/145 103/150/145 109/114/145
f 107/110/146 105/148/146 104/149/146 108/112/146
f 106/109/147 105/148/147 107/110/147
f 127/153/148 122/154/148 116/155/148 120/156/148
f 122/157/149 123/158/149 117/159/149 116/160/149
f 123/158/150 124/161/150 118/162/150 117/159/150
f 124/161/151 125/163/151 119/164/151 118/162/151
f 125/163/152 126/165/152 121/166/152 119/164/152
f 126/165/153 127/153/153 120/156/153 121/166/153
f 133/167/154 128/168/154 122/154/154 127/153/154
f 128/169/155 129/170/155 123/158/155 122/157/155
f 129/170/156 130/171/156 124/161/156 123/158/156
f 130/171/157 131/172/157 125/163/157 124/161/157
f 131/172/158 132/173/158 126/165/158 125/163/158
f 132/173/159 133/167/159 127/153/159 126/165/159
f 139/3/160 134/174/160 128/168/160 133/167/160
f 134/16/161 135/13/161 129/170/161 128/169/161
f 135/13/162 136/11/162 130/171/162 129/170/162
f 136/11/163 137/8/163 131/172/163 130/171/163
f 137/8/164 138/5/164 132/173/164 131/172/164
f 138/5/165 139/3/165 133/167/165 132/173/165
f 139/3/166 145/2/166 140/120/166 134/174/166
f 143/7/167 137/8/167 136/11/167 142/10/167
