# Blender v2.70 (sub 0) OBJ File: 'calf.blend'
# www.blender.org
mtllib calf.mtl
g Sphere
v -1.029998 0.404072 1.341785
v 0.004627 1.119554 1.162940
v 1.013921 0.534312 1.162940
v 1.011733 -0.632382 1.162940
v 0.000252 -1.213835 1.162940
v -1.029998 -0.466921 1.341785
v -1.318494 0.718806 1.469594
v 0.005302 1.479795 1.469593
v 1.326236 0.713848 1.469593
v 1.323373 -0.813087 1.469593
v -0.000422 -1.574076 1.469594
v -1.321356 -0.808130 1.469594
v -1.318494 0.718806 2.178621
v 0.005302 1.479795 2.178621
v 1.326236 0.713848 2.178621
v 1.323373 -0.813087 2.178621
v -0.000422 -1.574076 2.178621
v -1.321356 -0.808130 2.178621
v -0.786582 0.410376 10.397449
v 0.004150 0.864930 10.397449
v 0.793172 0.407414 10.397449
v 0.791462 -0.504657 10.397449
v 0.000730 -0.959212 10.397449
v -0.788292 -0.501696 10.397449
v 0.003431 0.481364 10.642788
v -0.454763 0.217970 10.642788
v 0.460634 0.216254 10.642788
v 0.459643 -0.312251 10.642788
v 0.001449 -0.575646 10.642788
v -0.455754 -0.310535 10.642788
v 1.650641 -0.569728 0.001465
v 1.403211 -1.055338 0.001465
v 1.017827 -1.440720 0.001465
v 0.532217 -1.688151 0.001465
v -0.006086 -1.606141 0.001465
v -0.544388 -1.688151 0.001465
v -1.029998 -1.440719 0.001465
v -1.415381 -1.055337 0.001465
v -1.662811 -0.569727 0.001465
v -1.748070 -0.031424 0.001465
v -1.662811 -0.466920 -0.314941
v -1.415381 -0.859787 -0.600376
v -1.029998 -1.171568 -0.826898
v -0.544388 -1.371744 -0.972334
v -0.006085 -1.305397 -0.924130
v 0.532217 -1.371744 -0.972334
v 1.017827 -1.171569 -0.826898
v 1.403211 -0.859788 -0.600376
v 1.650640 -0.466922 -0.314941
v 1.650641 -0.197770 -0.510491
v 1.403211 -0.347832 -0.972334
v 1.017827 -0.466921 -1.338855
v 0.532217 -0.543381 -1.574175
v -0.006085 -0.518039 -1.496179
v -0.544388 -0.543381 -1.574175
v -1.029998 -0.466921 -1.338855
v -1.415380 -0.347830 -0.972334
v -1.662811 -0.197769 -0.510491
v -1.662811 0.134921 -0.510491
v -1.415380 0.284982 -0.972334
v -1.029998 0.404072 -1.338855
v -0.544388 0.480532 -1.574175
v -0.006085 0.455190 -1.496179
v 0.532218 0.480532 -1.574175
v 1.017828 0.404071 -1.338855
v 1.403211 0.284981 -0.972334
v 1.650641 0.134920 -0.510491
v 1.650641 0.404071 -0.314941
v 1.403211 0.796938 -0.600376
v 1.017828 1.108719 -0.826898
v 0.532219 1.308895 -0.972334
v -0.006085 1.242548 -0.924130
v -0.544388 1.308895 -0.972334
v -1.029997 1.108720 -0.826898
v -1.415380 0.796939 -0.600376
v -1.662811 0.404072 -0.314941
v -1.662811 0.506879 0.001465
v -1.415380 0.992489 0.001465
v -1.029997 1.377871 0.001465
v -0.544388 1.625302 0.001466
v -0.006085 1.543292 0.001465
v 0.532219 1.625302 0.001465
v 1.017828 1.377871 0.001465
v 1.403211 0.992488 0.001465
v 1.650641 0.506877 0.001465
v 1.650641 0.404071 0.317872
v 1.403211 0.796938 0.603306
v 0.509274 0.826933 1.162940
v -0.512685 0.761813 1.252363
v -1.415380 0.796939 0.603306
v -1.662811 0.404072 0.317872
v -1.662811 0.134921 0.513421
v -1.415380 0.284982 0.975264
v 1.403211 0.284981 0.975264
v 1.650641 0.134919 0.513422
v 1.650641 -0.197770 0.513422
v 1.403211 -0.347832 0.975264
v -1.415380 -0.347831 0.975264
v -1.662810 -0.197769 0.513421
v -1.662811 -0.466920 0.317871
v -1.415381 -0.859788 0.603306
v -0.514873 -0.840378 1.252363
v 0.505992 -0.923109 1.162940
v 1.403211 -0.859789 0.603306
v 1.650640 -0.466922 0.317872
v 0.112113 -1.730780 0.001465
v -0.091938 -1.730781 0.001465
v -0.091938 -1.406232 -0.997391
v 0.112114 -1.406232 -0.997391
v 0.112114 -0.556554 -1.614718
v -0.091938 -0.556554 -1.614718
v -0.091938 0.493706 -1.614718
v 0.112115 0.493705 -1.614718
v 0.112115 1.343383 -0.997391
v -0.091938 1.343383 -0.997391
v -0.091938 1.667931 0.001465
v 0.112115 1.667931 0.001465
v 1.377849 -0.481647 0.001465
v 1.377849 -0.395663 -0.263169
v 1.377849 -0.170551 -0.426722
v 1.377849 0.107701 -0.426722
v 1.377849 0.332813 -0.263169
v 1.377849 0.418797 0.001465
v 1.377849 0.332812 0.266099
v 1.377849 0.107701 0.429652
v 1.377849 -0.170551 0.429652
v 1.377849 -0.395663 0.266099
v 1.677924 -0.530061 0.001465
v 1.677924 -0.434829 -0.291625
v 1.677925 -0.185512 -0.472765
v 1.677925 0.122662 -0.472765
v 1.677925 0.371979 -0.291625
v 1.677925 0.467210 0.001465
v 1.677925 0.371979 0.294556
v 1.677924 0.122662 0.475696
v 1.677925 -0.185512 0.475696
v 1.677924 -0.434829 0.294556
v 1.677925 0.395787 -0.218353
v 1.473245 0.419595 -0.145080
v 1.677925 0.443403 -0.071807
v 1.677924 -0.506253 0.074738
v 1.473244 -0.482445 0.148010
v 1.677924 -0.458637 0.221283
v 1.675440 -0.074418 -0.130852
v 1.675440 0.011567 0.133782
vt 0.739927 0.543931
vt 0.705665 0.524597
vt 0.757391 0.431323
vt 0.786762 0.449211
vt 0.597469 0.724749
vt 0.621057 0.746725
vt 0.611918 0.822927
vt 0.574842 0.850605
vt 0.651726 0.627846
vt 0.547269 0.705063
vt 0.601117 0.599849
vt 0.658602 0.498027
vt 0.713122 0.402254
vt 0.818650 0.336944
vt 0.774691 0.303170
vt 0.909253 0.236575
vt 0.853999 0.193384
vt 0.502771 0.830235
vt 0.099266 0.327943
vt 0.157987 0.275196
vt 0.199575 0.219263
vt 0.227774 0.161960
vt 0.242888 0.095012
vt 0.232627 0.003827
vt 0.005182 0.369660
vt 0.071429 0.284893
vt 0.122733 0.245121
vt 0.162785 0.198484
vt 0.192669 0.150102
vt 0.198344 0.093726
vt 0.184328 0.034032
vt 0.006041 0.306064
vt 0.570742 0.677909
vt 0.572747 0.700488
vt 0.559092 0.698095
vt 0.576180 0.722145
vt 0.549466 0.719432
vt 0.581391 0.744299
vt 0.532080 0.742555
vt 0.587249 0.769208
vt 0.534624 0.771520
vt 0.901824 0.447905
vt 0.931948 0.494967
vt 0.905582 0.504822
vt 0.880776 0.469928
vt 0.882808 0.513609
vt 0.864274 0.491581
vt 0.861543 0.523429
vt 0.851003 0.512914
vt 0.886756 0.540460
vt 0.864372 0.537501
vt 0.910825 0.544623
vt 0.937809 0.548817
vt 0.613301 0.727191
vt 0.629142 0.745268
vt 0.598670 0.711224
vt 0.584883 0.695109
vt 0.592034 0.684320
vt 0.611814 0.690786
vt 0.632460 0.697697
vt 0.655094 0.706497
vt 0.915879 0.597451
vt 0.894097 0.580938
vt 0.875712 0.565123
vt 0.858383 0.550217
vt 0.853013 0.580828
vt 0.845938 0.557876
vt 0.861576 0.604185
vt 0.872558 0.631154
vt 0.635481 0.661862
vt 0.660536 0.659069
vt 0.613336 0.665956
vt 0.592258 0.671222
vt 0.585039 0.659504
vt 0.600813 0.642957
vt 0.619119 0.626441
vt 0.642507 0.610281
vt 0.814476 0.641105
vt 0.817731 0.609203
vt 0.823490 0.581827
vt 0.830414 0.557715
vt 0.795004 0.565782
vt 0.817533 0.548082
vt 0.724191 0.610018
vt 0.559828 0.544405
vt 0.568258 0.601829
vt 0.571425 0.653883
vt 0.555834 0.657477
vt 0.483822 0.611621
vt 0.782991 0.530832
vt 0.812761 0.532212
vt 0.798209 0.493396
vt 0.819882 0.516585
vt 0.461383 0.657516
vt 0.546094 0.671352
vt 0.548060 0.687723
vt 0.504512 0.708163
vt 0.409165 0.715163
vt 0.833720 0.403561
vt 0.834064 0.480453
vt 0.835457 0.509237
vt 0.594084 0.794565
vt 0.530353 0.798420
vt 0.597147 0.820959
vt 0.515480 0.820087
vt 0.984322 0.475759
vt 0.956901 0.487127
vt 0.922166 0.430454
vt 0.961474 0.415444
vt 0.988264 0.557870
vt 0.963373 0.552875
vt 0.646495 0.763551
vt 0.678870 0.802539
vt 0.678578 0.714351
vt 0.726594 0.726374
vt 0.964301 0.637903
vt 0.936913 0.613964
vt 0.672427 0.515268
vt 0.652753 0.482445
vt 0.685990 0.655609
vt 0.725356 0.649524
vt 0.665242 0.596344
vt 0.709351 0.570795
vt 0.577275 0.519211
vt 0.813649 0.669689
vt 0.721648 0.692161
vt 0.622303 0.534826
vt 0.896507 0.370845
vt 0.422094 0.767357
vt 0.852374 0.528407
vt 0.845592 0.523493
vt 0.854701 0.536219
vt 0.851091 0.543594
vt 0.843470 0.547044
vt 0.834178 0.546584
vt 0.826924 0.541462
vt 0.825315 0.533182
vt 0.828303 0.524897
vt 0.836966 0.522196
vt 0.035272 0.869774
vt 0.058684 0.827036
vt 0.084293 0.856009
vt 0.072885 0.874083
vt 0.102082 0.807897
vt 0.103565 0.849263
vt 0.147287 0.823350
vt 0.122928 0.853774
vt 0.172768 0.864822
vt 0.134719 0.868937
vt 0.176901 0.918792
vt 0.152632 0.964409
vt 0.125540 0.933501
vt 0.134157 0.916831
vt 0.106009 0.979739
vt 0.105054 0.942173
vt 0.056004 0.968548
vt 0.084345 0.933509
vt 0.034086 0.920513
vt 0.072294 0.916068
vt 0.155383 0.891694
vt 0.134327 0.911573
vt 0.135149 0.874234
vt 0.052982 0.895473
vt 0.072718 0.879997
vt 0.071973 0.910207
vt 0.104793 0.872141
vt 0.104449 0.915858
vt 0.892732 0.319799
vt 0.938775 0.273605
vt 0.846926 0.359562
vt 0.823212 0.408992
vt 0.719296 0.599704
vt 0.701192 0.651070
vt 0.659156 0.700762
vn 0.700993 -0.001314 -0.713167
vn -0.403393 0.000482 -0.915027
vn -0.498375 0.866961 0.000000
vn 0.501623 0.865087 0.000000
vn 0.999998 -0.001875 0.000000
vn 0.498376 -0.866961 0.000000
vn -0.501622 -0.865087 0.000000
vn -0.999998 0.001874 0.000000
vn -0.497333 0.865147 0.064653
vn 0.500573 0.863277 0.064653
vn 0.997906 -0.001871 0.064653
vn 0.497333 -0.865147 0.064653
vn -0.500573 -0.863277 0.064653
vn -0.997906 0.001871 0.064653
vn -0.296086 0.515063 0.804390
vn 0.298013 0.513950 0.804390
vn 0.594101 -0.001114 0.804390
vn 0.296087 -0.515063 0.804390
vn -0.298014 -0.513949 0.804390
vn -0.594100 0.001114 0.804390
vn -0.986415 -0.156233 -0.050763
vn -0.881469 -0.449129 -0.145930
vn -0.689152 -0.689152 -0.223919
vn -0.436084 -0.855861 -0.278087
vn 0.436083 -0.855862 -0.278087
vn 0.689150 -0.689153 -0.223919
vn 0.881468 -0.449130 -0.145931
vn 0.881469 -0.277577 -0.382052
vn 0.689150 -0.425920 -0.586229
vn 0.436084 -0.528952 -0.728039
vn -0.436083 -0.528952 -0.728040
vn -0.689152 -0.425919 -0.586228
vn -0.881469 -0.277577 -0.382053
vn -0.986415 -0.096558 -0.132900
vn -0.986415 0.000000 -0.164273
vn -0.881468 0.000000 -0.472243
vn -0.689152 0.000000 -0.724617
vn -0.436083 0.000000 -0.899906
vn 0.436083 -0.000000 -0.899906
vn 0.689151 -0.000000 -0.724617
vn 0.881468 0.000000 -0.472243
vn 0.881468 0.277577 -0.382053
vn 0.689152 0.425919 -0.586227
vn 0.436084 0.528951 -0.728039
vn -0.436083 0.528952 -0.728040
vn -0.689152 0.425920 -0.586227
vn -0.881468 0.277577 -0.382053
vn -0.986415 0.096558 -0.132900
vn -0.986415 0.156233 -0.050763
vn -0.881468 0.449130 -0.145931
vn -0.689151 0.689152 -0.223919
vn -0.436083 0.855862 -0.278086
vn 0.436084 0.855861 -0.278086
vn 0.689152 0.689152 -0.223919
vn 0.881469 0.449129 -0.145931
vn 0.881469 0.449129 0.145931
vn 0.448775 0.769120 0.455032
vn 0.385602 0.756785 0.527813
vn -0.384712 0.755041 0.530952
vn -0.441478 0.770036 0.460589
vn -0.881468 0.449130 0.145931
vn -0.986415 0.156233 0.050763
vn -0.986415 0.096557 0.132900
vn -0.881468 0.277577 0.382053
vn -0.510389 0.619820 0.596093
vn 0.495898 0.600869 0.626931
vn 0.881469 0.277577 0.382052
vn 0.881469 0.000000 0.472243
vn 0.433297 -0.000527 0.901251
vn -0.689152 0.000000 0.724617
vn -0.881469 -0.000000 0.472242
vn -0.986415 -0.000003 0.164274
vn -0.986415 -0.096556 0.132901
vn -0.881469 -0.277577 0.382052
vn -0.518602 -0.612555 0.596514
vn 0.515175 -0.605628 0.606473
vn 0.881469 -0.277578 0.382052
vn 0.881469 -0.449130 0.145931
vn 0.462356 -0.767229 0.444507
vn 0.389785 -0.764995 0.512689
vn -0.386786 -0.759107 0.523597
vn -0.448635 -0.769139 0.455139
vn -0.881469 -0.449129 0.145930
vn -0.986415 -0.156233 0.050763
vn -0.089251 -0.947261 -0.307785
vn 0.809896 -0.557865 -0.181261
vn -0.708120 -0.671533 -0.218195
vn 0.096061 -0.946658 -0.307588
vn -0.708119 -0.415031 -0.571241
vn 0.096060 -0.585067 -0.805276
vn -0.089251 -0.585439 -0.805788
vn 0.809895 -0.344780 -0.474549
vn -0.089250 0.000000 -0.996009
vn 0.809895 -0.000000 -0.586575
vn -0.708118 0.000000 -0.706094
vn 0.096060 -0.000000 -0.995376
vn -0.708116 0.415033 -0.571243
vn 0.096060 0.585067 -0.805276
vn -0.089250 0.585440 -0.805788
vn 0.809895 0.344780 -0.474549
vn -0.089250 0.947261 -0.307784
vn 0.809895 0.557865 -0.181262
vn -0.708117 0.671537 -0.218195
vn 0.096061 0.946658 -0.307588
vn -0.702638 0.666341 0.249580
vn 0.296841 0.818802 0.491374
vn -0.292316 0.818501 0.494579
vn 0.807645 0.556315 0.195510
vn -0.706143 -0.669659 0.230041
vn 0.298158 -0.828090 0.474730
vn -0.308729 -0.821100 0.480085
vn 0.809491 -0.557584 0.183916
vn 0.293554 0.909156 0.295402
vn 0.293554 0.561888 0.773374
vn 0.293555 0.000000 0.955942
vn 0.293554 -0.561889 0.773373
vn 0.293554 -0.909156 0.295401
vn 0.293554 -0.909156 -0.295402
vn 0.293554 -0.561889 -0.773374
vn 0.293554 0.000000 -0.955942
vn 0.293554 0.561888 -0.773374
vn 0.293553 0.909156 -0.295402
vn -0.151665 -0.940055 -0.305442
vn -0.151665 -0.580985 -0.799659
vn -0.151665 0.000000 -0.988432
vn -0.151664 0.580986 -0.799658
vn -0.151665 0.940054 0.305443
vn -0.151665 0.580986 0.799658
vn -0.151665 -0.000000 0.988432
vn -0.151665 -0.580985 0.799658
vn -0.434674 0.856510 -0.278297
vn -0.151665 0.940054 -0.305443
vn -0.151664 0.940055 -0.305443
vn -0.095323 0.993833 -0.056643
vn -0.095322 0.837323 -0.538335
vn -0.434677 -0.856509 0.278296
vn -0.151665 -0.940055 0.305442
vn -0.151664 -0.940055 0.305442
vn -0.095323 -0.993834 0.056642
vn -0.095322 -0.837322 0.538336
vn 0.352280 0.289207 0.890089
vn 0.352280 -0.289208 -0.890089
vn 0.999200 -0.012359 -0.038028
vn 0.999986 0.004982 -0.001619
vn 0.999986 -0.004983 0.001619
vn 0.999200 0.012355 0.038027
vn 0.999986 -0.004984 0.001619
vn 0.999986 0.004980 -0.001622
vn 0.999980 -0.006021 -0.001956
vn 0.999974 -0.004273 -0.005877
vn 0.999974 0.000002 -0.007266
vn 0.999980 0.003720 -0.005123
vn 0.999980 0.006020 0.001956
vn 0.999974 0.004271 0.005880
vn 0.999974 0.000000 0.007267
vn 0.999980 -0.003722 0.005122
vn -0.250613 -0.432201 -0.866254
vn -0.262732 -0.133589 -0.955576
vn -0.515593 -0.554839 -0.652930
vn 0.349359 -0.607735 -0.713167
vn 0.349358 -0.607734 -0.713168
vn 0.349358 -0.607735 -0.713167
vn 0.351634 0.606420 -0.713168
vn 0.351634 0.606420 -0.713167
vn 0.351634 0.606421 -0.713167
vn -0.255240 0.444009 -0.858900
vn -0.501863 0.561202 -0.658168
vn -0.264740 0.144504 -0.953431
usemtl Material.001
s off
f 3/1/1 9/2/1 10/3/1 4/4/1
f 7/5/2 1/6/2 6/7/2 12/8/2
f 8/9/3 7/5/3 13/10/3 14/11/3
f 9/2/4 8/9/4 14/11/4 15/12/4
f 10/3/5 9/2/5 15/12/5 16/13/5
f 11/14/6 10/3/6 16/13/6 17/15/6
f 12/16/7 11/14/7 17/15/7 18/17/7
f 7/5/8 12/8/8 18/18/8 13/10/8
f 14/11/9 13/10/9 19/19/9 20/20/9
f 15/12/10 14/11/10 20/20/10 21/21/10
f 16/13/11 15/12/11 21/21/11 22/22/11
f 17/15/12 16/13/12 22/22/12 23/23/12
f 18/17/13 17/15/13 23/23/13 24/24/13
f 13/10/14 18/18/14 24/25/14 19/19/14
f 20/20/15 19/19/15 26/26/15 25/27/15
f 21/21/16 20/20/16 25/27/16 27/28/16
f 22/22/17 21/21/17 27/28/17 28/29/17
f 23/23/18 22/22/18 28/29/18 29/30/18
f 24/24/19 23/23/19 29/30/19 30/31/19
f 19/19/20 24/25/20 30/32/20 26/26/20
f 40/33/21 41/34/21 39/35/21
f 39/35/22 41/34/22 42/36/22 38/37/22
f 38/37/23 42/36/23 43/38/23 37/39/23
f 37/39/24 43/38/24 44/40/24 36/41/24
f 34/42/25 46/43/25 47/44/25 33/45/25
f 33/45/26 47/44/26 48/46/26 32/47/26
f 49/48/27 31/49/27 32/47/27 48/46/27
f 48/46/28 51/50/28 50/51/28 49/48/28
f 47/44/29 52/52/29 51/50/29 48/46/29
f 46/43/30 53/53/30 52/52/30 47/44/30
f 43/38/31 56/54/31 55/55/31 44/40/31
f 42/36/32 57/56/32 56/54/32 43/38/32
f 41/34/33 58/57/33 57/56/33 42/36/33
f 40/33/34 58/57/34 41/34/34
f 40/33/35 59/58/35 58/57/35
f 58/57/36 59/58/36 60/59/36 57/56/36
f 57/56/37 60/59/37 61/60/37 56/54/37
f 56/54/38 61/60/38 62/61/38 55/55/38
f 53/53/39 64/62/39 65/63/39 52/52/39
f 52/52/40 65/63/40 66/64/40 51/50/40
f 51/50/41 66/64/41 67/65/41 50/51/41
f 66/64/42 69/66/42 68/67/42 67/65/42
f 65/63/43 70/68/43 69/66/43 66/64/43
f 64/62/44 71/69/44 70/68/44 65/63/44
f 61/60/45 74/70/45 73/71/45 62/61/45
f 60/59/46 75/72/46 74/70/46 61/60/46
f 59/58/47 76/73/47 75/72/47 60/59/47
f 40/33/48 76/73/48 59/58/48
f 40/33/49 77/74/49 76/73/49
f 76/73/50 77/74/50 78/75/50 75/72/50
f 75/72/51 78/75/51 79/76/51 74/70/51
f 74/70/52 79/76/52 80/77/52 73/71/52
f 71/69/53 82/78/53 83/79/53 70/68/53
f 70/68/54 83/79/54 84/80/54 69/66/54
f 69/66/55 84/80/55 85/81/55 68/67/55
f 84/80/56 87/82/56 86/83/56 85/81/56
f 83/79/57 88/84/57 87/82/57 84/80/57
f 82/78/58 88/84/58 83/79/58
f 79/76/59 89/85/59 80/77/59
f 78/75/60 90/86/60 89/85/60 79/76/60
f 77/74/61 91/87/61 90/86/61 78/75/61
f 40/33/62 91/87/62 77/74/62
f 40/33/63 92/88/63 91/87/63
f 91/87/64 92/88/64 93/89/64 90/86/64
f 1/6/65 89/85/65 90/86/65 93/89/65
f 88/84/66 3/1/66 94/90/66 87/82/66
f 87/82/67 94/90/67 95/91/67 86/83/67
f 94/90/68 97/92/68 96/93/68 95/91/68
f 3/1/69 4/4/69 97/92/69 94/90/69
f 6/7/70 1/6/70 93/89/70 98/94/70
f 92/88/71 99/95/71 98/94/71 93/89/71
f 40/33/72 99/95/72 92/88/72
f 40/33/73 100/96/73 99/95/73
f 99/95/74 100/96/74 101/97/74 98/94/74
f 98/94/75 101/97/75 102/98/75 6/7/75
f 4/4/76 103/99/76 104/100/76 97/92/76
f 97/92/77 104/100/77 105/101/77 96/93/77
f 31/49/78 105/101/78 104/100/78 32/47/78
f 103/99/79 33/45/79 32/47/79 104/100/79
f 103/99/80 34/42/80 33/45/80
f 102/98/81 37/39/81 36/41/81
f 101/97/82 38/37/82 37/39/82 102/98/82
f 100/96/83 39/35/83 38/37/83 101/97/83
f 40/33/84 39/35/84 100/96/84
f 44/40/85 108/102/85 107/103/85 36/41/85
f 108/102/86 45/104/86 35/105/86 107/103/86
f 45/106/87 109/107/87 106/108/87 35/109/87
f 109/107/88 46/43/88 34/42/88 106/108/88
f 54/110/89 110/111/89 109/107/89 45/106/89
f 110/111/90 53/53/90 46/43/90 109/107/90
f 55/55/91 111/112/91 108/102/91 44/40/91
f 111/112/92 54/113/92 45/104/92 108/102/92
f 62/61/93 112/114/93 111/112/93 55/55/93
f 112/114/94 63/115/94 54/113/94 111/112/94
f 63/116/95 113/117/95 110/111/95 54/110/95
f 113/117/96 64/62/96 53/53/96 110/111/96
f 72/118/97 114/119/97 113/117/97 63/116/97
f 114/119/98 71/69/98 64/62/98 113/117/98
f 73/71/99 115/120/99 112/114/99 62/61/99
f 115/120/100 72/121/100 63/115/100 112/114/100
f 80/77/101 116/122/101 115/120/101 73/71/101
f 116/122/102 81/123/102 72/121/102 115/120/102
f 81/124/103 117/125/103 114/119/103 72/118/103
f 117/125/104 82/78/104 71/69/104 114/119/104
f 2/126/105 117/125/105 81/124/105
f 2/126/106 88/84/106 82/78/106 117/125/106
f 89/85/107 2/127/107 116/122/107 80/77/107
f 2/127/108 81/123/108 116/122/108
f 35/109/109 106/108/109 5/128/109
f 106/108/110 34/42/110 103/99/110 5/128/110
f 36/41/111 107/103/111 5/129/111 102/98/111
f 107/103/112 35/105/112 5/129/112
f 31/49/113 49/48/113 119/130/113 118/131/113
f 49/48/114 50/51/114 120/132/114 119/130/114
f 50/51/115 67/65/115 121/133/115 120/132/115
f 67/65/116 68/67/116 122/134/116 121/133/116
f 68/67/117 85/81/117 123/135/117 122/134/117
f 85/81/118 86/83/118 124/136/118 123/135/118
f 86/83/119 95/91/119 125/137/119 124/136/119
f 95/91/120 96/93/120 126/138/120 125/137/120
f 96/93/121 105/101/121 127/139/121 126/138/121
f 105/101/122 31/49/122 118/131/122 127/139/122
f 118/140/123 119/141/123 129/142/123 128/143/123
f 119/141/124 120/144/124 130/145/124 129/142/124
f 120/144/125 121/146/125 131/147/125 130/145/125
f 121/146/126 122/148/126 132/149/126 131/147/126
f 123/150/127 124/151/127 134/152/127 133/153/127
f 124/151/128 125/154/128 135/155/128 134/152/128
f 125/154/129 126/156/129 136/157/129 135/155/129
f 126/156/130 127/158/130 137/159/130 136/157/130
f 139/160/131 122/148/131 123/150/131
f 133/153/132 140/161/132 123/150/132
f 138/162/133 132/149/133 122/148/133
f 140/161/134 139/160/134 123/150/134
f 139/160/135 138/162/135 122/148/135
f 142/163/136 127/158/136 118/140/136
f 128/143/137 141/164/137 118/140/137
f 143/165/138 137/159/138 127/158/138
f 141/164/139 142/163/139 118/140/139
f 142/163/140 143/165/140 127/158/140
f 138/162/141 139/160/141 142/163/141 141/164/141
f 139/160/142 140/161/142 143/165/142 142/163/142
f 144/166/143 138/162/143 141/164/143
f 128/143/144 144/166/144 141/164/144
f 144/166/145 132/149/145 138/162/145
f 145/167/146 143/165/146 140/161/146
f 133/153/147 145/167/147 140/161/147
f 145/167/148 137/159/148 143/165/148
f 133/153/149 134/152/149 145/167/149
f 134/152/150 135/155/150 145/167/150
f 135/155/151 136/157/151 145/167/151
f 136/157/152 137/159/152 145/167/152
f 128/143/153 129/142/153 144/166/153
f 129/142/154 130/145/154 144/166/154
f 130/145/155 131/147/155 144/166/155
f 131/147/156 132/149/156 144/166/156
f 102/168/157 11/14/157 12/16/157
f 6/169/158 102/168/158 12/16/158
f 102/168/159 5/170/159 11/14/159
f 103/171/160 10/3/160 11/14/160
f 5/170/161 103/171/161 11/14/161
f 103/171/162 4/4/162 10/3/162
f 88/172/163 8/9/163 9/2/163
f 3/1/164 88/172/164 9/2/164
f 88/172/165 2/173/165 8/9/165
f 89/174/166 7/5/166 8/9/166
f 2/173/167 89/174/167 8/9/167
f 89/174/168 1/6/168 7/5/168
