# Blender v2.70 (sub 0) OBJ File: 'hairLock.blend'
# www.blender.org
mtllib hairlock.mtl
g Cube
v -0.332231 -0.292161 -0.786286
v 0.335009 -0.292023 -0.785920
v 0.334032 0.297903 0.778839
v -0.333208 0.297765 0.778473
v -0.332231 -0.292161 -0.786286
v 0.335009 -0.292023 -0.785920
v 0.334032 0.297903 0.778839
v -0.333208 0.297765 0.778473
v -0.332231 -0.292161 -0.786286
v 0.335009 -0.292023 -0.785920
v 0.334032 0.297903 0.778839
v -0.333208 0.297765 0.778473
v -0.332231 -0.298290 -0.784522
v 0.335009 -0.298153 -0.784156
v 0.334032 0.291773 0.780603
v -0.333208 0.291635 0.780237
vt 0.986586 0.965796
vt 0.965252 0.957205
vt 0.962960 0.944523
vt 0.986586 0.933401
vn 0.000000 0.935710 -0.352769
vn -0.000000 -0.935710 0.352770
usemtl Material
s off
f 1/1/1 4/2/1 3/3/1 2/4/1
f 5/1/1 8/2/1 7/3/1 6/4/1
f 9/1/1 12/2/1 11/3/1 10/4/1
f 13/1/2 14/4/2 15/3/2 16/2/2
